<?xml version="1.0" standalone="no"?>
<!DOCTYPE svg PUBLIC "-//W3C//DTD SVG 20010904//EN"
 "http://www.w3.org/TR/2001/REC-SVG-20010904/DTD/svg10.dtd">
<svg version="1.0" xmlns="http://www.w3.org/2000/svg"
 width="501.000000pt" height="501.000000pt" viewBox="0 0 501.000000 501.000000"
 preserveAspectRatio="xMidYMid meet">
<metadata>
Created by potrace 1.14, written by Peter Selinger 2001-2017
</metadata>
<g transform="translate(0.000000,501.000000) scale(0.100000,-0.100000)"
fill="#000000" stroke="none">
<path d="M2087 4983 c-51 -12 -221 -102 -257 -135 -11 -10 -20 -16 -20 -12 0
3 -9 -4 -20 -17 -10 -13 -19 -21 -20 -16 0 7 -67 -65 -128 -139 -17 -21 -38
-51 -44 -66 -7 -16 -16 -28 -19 -28 -4 0 -10 -11 -13 -25 -4 -14 -11 -25 -16
-25 -6 0 -10 -5 -10 -11 0 -5 -9 -31 -21 -56 -12 -25 -27 -67 -34 -92 -7 -25
-25 -79 -39 -120 -14 -41 -28 -91 -30 -110 -3 -20 -5 -36 -6 -36 -5 0 -20
-121 -24 -190 -1 -22 -5 -45 -9 -51 -3 -6 -4 -14 -1 -17 4 -3 7 -34 9 -69 1
-35 5 -79 9 -98 4 -19 8 -42 10 -50 9 -50 28 -137 33 -150 3 -8 8 -26 10 -39
3 -19 1 -22 -14 -16 -24 10 -81 7 -104 -6 -25 -13 -52 -67 -46 -90 3 -11 2
-19 -1 -19 -4 0 -7 -13 -7 -30 0 -16 2 -30 5 -30 3 0 6 -27 7 -60 2 -33 11
-95 22 -137 11 -43 22 -90 25 -105 2 -14 9 -36 16 -47 6 -12 8 -21 4 -21 -3 0
-2 -6 4 -12 6 -7 11 -17 11 -23 2 -17 23 -79 31 -90 4 -5 10 -22 13 -36 4 -15
22 -48 40 -75 49 -73 57 -97 73 -234 5 -43 8 -62 20 -140 3 -19 7 -55 8 -80 4
-67 22 -116 90 -250 25 -48 21 -90 -9 -90 -8 0 -15 -4 -15 -9 0 -5 -10 -12
-22 -15 -13 -3 -43 -24 -66 -46 -24 -22 -48 -40 -52 -40 -5 0 -15 -6 -22 -13
-25 -25 -109 -66 -313 -153 -49 -21 -93 -42 -96 -47 -3 -5 -8 -8 -10 -7 -5 2
-34 -8 -84 -30 -65 -28 -176 -71 -194 -75 -9 -2 -41 -11 -71 -20 -30 -9 -59
-17 -65 -18 -5 -2 -15 -5 -20 -9 -6 -3 -28 -9 -50 -13 -22 -4 -44 -10 -50 -14
-5 -3 -14 -6 -20 -7 -5 -1 -44 -12 -85 -24 -41 -12 -77 -22 -80 -22 -3 0 -11
-4 -17 -10 -7 -6 -13 -7 -13 -3 0 4 -7 2 -15 -5 -8 -7 -15 -9 -15 -5 0 4 -7 2
-15 -5 -8 -7 -15 -9 -15 -6 0 4 -10 1 -22 -5 -13 -7 -32 -14 -43 -15 -11 -1
-33 -8 -50 -14 -16 -6 -32 -12 -35 -12 -3 -1 -18 -7 -35 -14 l-30 -12 0 -466
c0 -259 4 -466 9 -466 5 0 4 -6 -1 -13 -10 -14 -11 -137 0 -154 4 -6 3 -14 -3
-18 -6 -4 -4 -12 6 -22 14 -14 251 -16 2442 -15 1335 0 2448 1 2475 1 l47 1 0
668 0 667 -78 24 c-42 13 -91 30 -109 37 -17 8 -36 14 -41 14 -6 0 -23 5 -39
12 -15 6 -31 12 -35 13 -5 2 -9 3 -10 5 -2 1 -10 3 -18 5 -8 1 -40 13 -70 25
-30 12 -82 31 -115 42 -33 11 -69 25 -80 31 -11 6 -29 12 -40 14 -10 2 -23 9
-27 16 -4 6 -8 9 -8 5 0 -6 -53 13 -145 53 -81 35 -230 90 -255 94 -3 0 -9 3
-15 6 -11 7 -263 90 -282 93 -7 1 -16 5 -19 9 -4 4 -14 7 -22 7 -29 0 -91 33
-95 52 -3 10 0 18 6 18 6 0 7 3 4 6 -4 4 2 19 13 34 11 15 17 30 13 34 -3 3
-1 6 5 6 7 0 11 3 11 8 -4 25 2 42 14 36 8 -5 8 -2 -2 9 -9 12 -10 17 -2 17 7
0 9 5 6 10 -3 6 -2 10 2 10 5 0 9 12 8 27 0 16 5 33 13 38 7 6 13 34 15 62 1
29 5 53 8 53 4 0 7 35 8 78 2 96 4 108 24 154 10 21 17 40 17 43 1 2 25 53 54
112 67 134 96 199 96 212 0 6 5 11 12 11 6 0 9 3 5 6 -3 3 5 35 19 70 13 35
22 64 19 64 -2 0 2 18 10 40 8 22 12 40 8 40 -3 0 -1 6 4 13 14 18 17 144 4
152 -6 3 -9 10 -6 15 6 10 -51 60 -70 60 -18 0 -27 28 -16 48 12 24 43 142 57
222 6 32 9 405 4 445 -2 17 -6 35 -9 40 -3 6 -7 20 -9 33 -3 27 -53 162 -77
212 -10 19 -27 55 -39 80 -22 47 -96 130 -115 130 -6 0 -11 4 -11 8 0 8 -54
34 -100 47 -30 9 -58 39 -84 88 -11 21 -23 37 -28 37 -4 0 -8 7 -8 15 0 8 -4
15 -9 15 -4 0 -19 10 -33 23 -38 34 -86 67 -98 67 -5 0 -10 4 -10 8 0 7 -143
83 -155 82 -3 0 -19 7 -36 16 -18 9 -48 17 -69 19 -21 1 -42 5 -48 9 -6 3 -13
2 -17 -4 -4 -6 -11 -7 -17 -4 -13 9 -412 9 -426 0 -6 -3 -13 -3 -15 2 -6 9
-201 7 -216 -3 -6 -3 -11 -2 -11 2 0 13 -66 10 -123 -4z"/>
</g>
</svg>
